<svg id="Capa_1" enable-background="new 0 0 512 512" height="512" viewBox="0 0 512 512" width="512" xmlns="http://www.w3.org/2000/svg"><g><path d="m47.666 193.989h160v124.023h-160z" fill="#fff5cc"/><path d="m304 193.989h160v124.023h-160z" fill="#ffe9cc"/><g><path d="m89.301 241h76.73v30h-76.73z" fill="#ffde55" transform="matrix(.707 -.707 .707 .707 -143.627 165.255)"/><path d="m345.968 241h76.73v30h-76.73z" fill="#ffb655" transform="matrix(.707 -.707 .707 .707 -68.451 346.746)"/></g><g><path d="m232 226.479v-29.812h24l10-15.667-10-14.333h-187.667c-19.555 0-36.228 12.541-42.42 30h-25.913v30h23.333v73.666c0 24.813 20.187 45 45 45h118.667c24.813 0 45-20.187 45-45v-25.5c0-13.233 10.767-24 24-24l10-14.333-10-15.667c-8.618 0-16.765 2.04-24 5.646zm-30 73.854c0 8.271-6.729 15-15 15h-118.667c-8.271 0-15-6.729-15-15v-88.666c0-8.271 6.729-15 15-15h133.667z" fill="#ffde55"/><path d="m486.087 196.667c-6.192-17.459-22.865-30-42.42-30h-187.667v30h24v29.812c-7.235-3.606-15.382-5.646-24-5.646v30c13.233 0 24 10.767 24 24v25.5c0 24.813 20.187 45 45 45h118.667c24.813 0 45-20.187 45-45v-73.666h23.333v-30zm-27.42 103.666c0 8.271-6.729 15-15 15h-118.667c-8.271 0-15-6.729-15-15v-103.666h133.667c8.271 0 15 6.729 15 15z" fill="#ffb655"/></g></g></svg>